testOutput_glyphs.ufo
<glyph name="A" format="1">
  <advance width="554"/>
  <unicode hex="0041"/>
  <outline>
    <contour>
      <point x="24" y="0" type="line"/>
      <point x="65" y="0" type="line"/>
      <point x="272" y="700" type="line"/>
      <point x="236" y="700" type="line"/>
    </contour>
    <contour>
      <point x="107" y="212" type="line"/>
      <point x="447" y="212" type="line"/>
      <point x="447" y="243" type="line"/>
      <point x="107" y="243" type="line"/>
    </contour>
    <contour>
      <point x="481" y="0" type="line"/>
      <point x="530" y="0" type="line"/>
      <point x="318" y="700" type="line"/>
      <point x="274" y="700" type="line"/>
    </contour>
    <contour>
      <point x="244" y="663" type="line"/>
      <point x="310" y="663" type="line"/>
      <point x="310" y="700" type="line"/>
      <point x="244" y="700" type="line"/>
    </contour>
  </outline>
</glyph>
<glyph name="B" format="1">
  <advance width="573"/>
  <unicode hex="0042"/>
  <outline>
    <contour>
      <point x="72" y="0" type="line"/>
      <point x="112" y="0" type="line"/>
      <point x="112" y="700" type="line"/>
      <point x="72" y="700" type="line"/>
    </contour>
    <contour>
      <point x="92" y="333" type="line"/>
      <point x="328" y="333" type="line" smooth="yes"/>
      <point x="447" y="333"/>
      <point x="502" y="269"/>
      <point x="502" y="183" type="curve" smooth="yes"/>
      <point x="502" y="97"/>
      <point x="447" y="36"/>
      <point x="328" y="36" type="curve" smooth="yes"/>
      <point x="92" y="36" type="line"/>
      <point x="92" y="0" type="line"/>
      <point x="318" y="0" type="line" smooth="yes"/>
      <point x="478" y="0"/>
      <point x="541" y="83"/>
      <point x="541" y="183" type="curve" smooth="yes"/>
      <point x="541" y="273"/>
      <point x="487" y="347"/>
      <point x="364" y="363" type="curve"/>
      <point x="360" y="346" type="line"/>
      <point x="454" y="372"/>
      <point x="497" y="439"/>
      <point x="497" y="517" type="curve" smooth="yes"/>
      <point x="497" y="618"/>
      <point x="434" y="700"/>
      <point x="274" y="700" type="curve" smooth="yes"/>
      <point x="92" y="700" type="line"/>
      <point x="92" y="664" type="line"/>
      <point x="284" y="664" type="line" smooth="yes"/>
      <point x="403" y="664"/>
      <point x="458" y="603"/>
      <point x="458" y="517" type="curve" smooth="yes"/>
      <point x="458" y="431"/>
      <point x="403" y="368"/>
      <point x="284" y="368" type="curve" smooth="yes"/>
      <point x="92" y="368" type="line"/>
    </contour>
  </outline>
</glyph>
<glyph name="C" format="1">
  <advance width="670"/>
  <unicode hex="0043"/>
  <outline>
    <contour>
      <point x="575" y="274" type="line"/>
      <point x="556" y="99"/>
      <point x="473" y="26"/>
      <point x="352" y="26" type="curve" smooth="yes"/>
      <point x="323" y="26" type="line" smooth="yes"/>
      <point x="185" y="26"/>
      <point x="96" y="120"/>
      <point x="96" y="352" type="curve" smooth="yes"/>
      <point x="96" y="583"/>
      <point x="185" y="674"/>
      <point x="323" y="674" type="curve" smooth="yes"/>
      <point x="352" y="674" type="line" smooth="yes"/>
      <point x="472" y="674"/>
      <point x="555" y="604"/>
      <point x="574" y="433" type="curve"/>
      <point x="614" y="437" type="line"/>
      <point x="591" y="624"/>
      <point x="494" y="710"/>
      <point x="352" y="710" type="curve" smooth="yes"/>
      <point x="323" y="710" type="line" smooth="yes"/>
      <point x="158" y="710"/>
      <point x="56" y="599"/>
      <point x="56" y="352" type="curve" smooth="yes"/>
      <point x="56" y="104"/>
      <point x="158" y="-10"/>
      <point x="323" y="-10" type="curve" smooth="yes"/>
      <point x="352" y="-10" type="line" smooth="yes"/>
      <point x="495" y="-10"/>
      <point x="592" y="78"/>
      <point x="614" y="270" type="curve"/>
    </contour>
  </outline>
</glyph>
<glyph name="E" format="1">
  <advance width="540"/>
  <unicode hex="0045"/>
  <outline>
    <contour>
      <point x="72" y="0" type="line"/>
      <point x="112" y="0" type="line"/>
      <point x="112" y="700" type="line"/>
      <point x="72" y="700" type="line"/>
    </contour>
    <contour>
      <point x="92" y="664" type="line"/>
      <point x="468" y="664" type="line"/>
      <point x="468" y="700" type="line"/>
      <point x="92" y="700" type="line"/>
    </contour>
    <contour>
      <point x="92" y="0" type="line"/>
      <point x="468" y="0" type="line"/>
      <point x="468" y="36" type="line"/>
      <point x="92" y="36" type="line"/>
    </contour>
    <contour>
      <point x="92" y="334" type="line"/>
      <point x="428" y="334" type="line"/>
      <point x="428" y="370" type="line"/>
      <point x="92" y="370" type="line"/>
    </contour>
  </outline>
</glyph>
<glyph name="F" format="1">
  <advance width="550"/>
  <unicode hex="0046"/>
  <outline>
    <contour>
      <point x="72" y="0" type="line"/>
      <point x="112" y="0" type="line"/>
      <point x="112" y="700" type="line"/>
      <point x="72" y="700" type="line"/>
    </contour>
    <contour>
      <point x="92" y="664" type="line"/>
      <point x="478" y="664" type="line"/>
      <point x="478" y="700" type="line"/>
      <point x="92" y="700" type="line"/>
    </contour>
    <contour>
      <point x="92" y="298" type="line"/>
      <point x="458" y="298" type="line"/>
      <point x="458" y="334" type="line"/>
      <point x="92" y="334" type="line"/>
    </contour>
  </outline>
</glyph>
<glyph name="G" format="1">
  <advance width="686"/>
  <unicode hex="0047"/>
  <outline>
    <contour>
      <point x="294" y="300" type="line"/>
      <point x="573" y="300" type="line"/>
      <point x="573" y="216" type="line"/>
      <point x="584" y="0" type="line"/>
      <point x="610" y="0" type="line"/>
      <point x="610" y="331" type="line"/>
      <point x="294" y="331" type="line"/>
    </contour>
    <contour>
      <point x="575" y="274" type="line"/>
      <point x="556" y="99"/>
      <point x="473" y="26"/>
      <point x="352" y="26" type="curve" smooth="yes"/>
      <point x="323" y="26" type="line" smooth="yes"/>
      <point x="185" y="26"/>
      <point x="96" y="120"/>
      <point x="96" y="352" type="curve" smooth="yes"/>
      <point x="96" y="583"/>
      <point x="192" y="674"/>
      <point x="330" y="674" type="curve" smooth="yes"/>
      <point x="359" y="674" type="line" smooth="yes"/>
      <point x="479" y="674"/>
      <point x="555" y="604"/>
      <point x="574" y="433" type="curve"/>
      <point x="614" y="437" type="line"/>
      <point x="591" y="624"/>
      <point x="501" y="710"/>
      <point x="359" y="710" type="curve" smooth="yes"/>
      <point x="330" y="710" type="line" smooth="yes"/>
      <point x="166" y="710"/>
      <point x="56" y="599"/>
      <point x="56" y="352" type="curve" smooth="yes"/>
      <point x="56" y="104"/>
      <point x="158" y="-10"/>
      <point x="323" y="-10" type="curve" smooth="yes"/>
      <point x="352" y="-10" type="line" smooth="yes"/>
      <point x="495" y="-10"/>
      <point x="586" y="78"/>
      <point x="600" y="270" type="curve"/>
    </contour>
  </outline>
</glyph>
<glyph name="H" format="1">
  <advance width="604"/>
  <unicode hex="0048"/>
  <outline>
    <contour>
      <point x="72" y="0" type="line"/>
      <point x="112" y="0" type="line"/>
      <point x="112" y="700" type="line"/>
      <point x="72" y="700" type="line"/>
    </contour>
    <contour>
      <point x="92" y="334" type="line"/>
      <point x="512" y="334" type="line"/>
      <point x="512" y="370" type="line"/>
      <point x="92" y="370" type="line"/>
    </contour>
    <contour>
      <point x="492" y="0" type="line"/>
      <point x="532" y="0" type="line"/>
      <point x="532" y="700" type="line"/>
      <point x="492" y="700" type="line"/>
    </contour>
  </outline>
</glyph>
<glyph name="J" format="1">
  <advance width="482"/>
  <unicode hex="004A"/>
  <outline>
    <contour>
      <point x="155" y="-10" type="curve" smooth="yes"/>
      <point x="312" y="-10"/>
      <point x="410" y="96"/>
      <point x="410" y="326" type="curve" smooth="yes"/>
      <point x="410" y="700" type="line"/>
      <point x="370" y="700" type="line"/>
      <point x="370" y="326" type="line" smooth="yes"/>
      <point x="370" y="113"/>
      <point x="287" y="26"/>
      <point x="155" y="26" type="curve" smooth="yes"/>
      <point x="129" y="26"/>
      <point x="105" y="31"/>
      <point x="84" y="40" type="curve"/>
      <point x="72" y="3" type="line"/>
      <point x="97" y="-6"/>
      <point x="125" y="-10"/>
    </contour>
  </outline>
</glyph>
<glyph name="K" format="1">
  <advance width="537"/>
  <unicode hex="004B"/>
  <outline>
    <contour>
      <point x="72" y="0" type="line"/>
      <point x="112" y="0" type="line"/>
      <point x="112" y="700" type="line"/>
      <point x="72" y="700" type="line"/>
    </contour>
    <contour>
      <point x="86" y="303" type="line"/>
      <point x="161" y="303" type="line"/>
      <point x="457" y="0" type="line"/>
      <point x="513" y="0" type="line"/>
      <point x="177" y="334" type="line"/>
      <point x="171" y="336" type="line"/>
      <point x="86" y="336" type="line"/>
    </contour>
    <contour>
      <point x="140" y="321" type="line"/>
      <point x="170" y="309" type="line"/>
      <point x="507" y="700" type="line"/>
      <point x="457" y="700" type="line"/>
    </contour>
  </outline>
</glyph>
<glyph name="N" format="1">
  <advance width="1039"/>
  <unicode hex="004E"/>
  <outline>
    <contour>
      <point x="102" y="0" type="line"/>
      <point x="142" y="0" type="line"/>
      <point x="142" y="700" type="line"/>
      <point x="102" y="700" type="line"/>
    </contour>
    <contour>
      <point x="937" y="0" type="line"/>
      <point x="937" y="700" type="line"/>
      <point x="897" y="700" type="line"/>
      <point x="897" y="0" type="line"/>
    </contour>
    <contour>
      <point x="919" y="659" type="line"/>
      <point x="897" y="700" type="line"/>
      <point x="499" y="285" type="line"/>
      <point x="540" y="285" type="line"/>
      <point x="142" y="700" type="line"/>
      <point x="120" y="659" type="line"/>
      <point x="502" y="257" type="line"/>
      <point x="537" y="257" type="line"/>
    </contour>
  </outline>
</glyph>
<glyph name="O" format="1">
  <advance width="667"/>
  <unicode hex="004F"/>
  <outline>
    <contour>
      <point x="323" y="-10" type="curve" smooth="yes"/>
      <point x="344" y="-10" type="line" smooth="yes"/>
      <point x="507" y="-10"/>
      <point x="611" y="104"/>
      <point x="611" y="352" type="curve" smooth="yes"/>
      <point x="611" y="599"/>
      <point x="507" y="710"/>
      <point x="344" y="710" type="curve" smooth="yes"/>
      <point x="323" y="710" type="line" smooth="yes"/>
      <point x="158" y="710"/>
      <point x="56" y="599"/>
      <point x="56" y="352" type="curve" smooth="yes"/>
      <point x="56" y="104"/>
      <point x="158" y="-10"/>
    </contour>
    <contour>
      <point x="323" y="26" type="line" smooth="yes"/>
      <point x="185" y="26"/>
      <point x="96" y="120"/>
      <point x="96" y="352" type="curve" smooth="yes"/>
      <point x="96" y="583"/>
      <point x="185" y="674"/>
      <point x="323" y="674" type="curve" smooth="yes"/>
      <point x="344" y="674" type="line" smooth="yes"/>
      <point x="482" y="674"/>
      <point x="571" y="583"/>
      <point x="571" y="352" type="curve" smooth="yes"/>
      <point x="571" y="120"/>
      <point x="482" y="26"/>
      <point x="344" y="26" type="curve" smooth="yes"/>
    </contour>
  </outline>
</glyph>
<glyph name="R" format="1">
  <advance width="543"/>
  <unicode hex="0052"/>
  <outline>
    <contour>
      <point x="458" y="0" type="line"/>
      <point x="509" y="0" type="line"/>
      <point x="407" y="106" type="line" smooth="yes"/>
      <point x="367" y="165"/>
      <point x="343" y="189"/>
      <point x="318" y="187" type="curve"/>
      <point x="299" y="187" type="line"/>
    </contour>
    <contour>
      <point x="72" y="0" type="line"/>
      <point x="112" y="0" type="line"/>
      <point x="112" y="700" type="line"/>
      <point x="72" y="700" type="line"/>
    </contour>
    <contour>
      <point x="92" y="660" type="line"/>
      <point x="248" y="660" type="line" smooth="yes"/>
      <point x="402" y="660"/>
      <point x="463" y="573"/>
      <point x="463" y="432" type="curve" smooth="yes"/>
      <point x="463" y="291"/>
      <point x="402" y="205"/>
      <point x="248" y="205" type="curve" smooth="yes"/>
      <point x="92" y="205" type="line"/>
      <point x="92" y="165" type="line"/>
      <point x="236" y="165" type="line" smooth="yes"/>
      <point x="439" y="165"/>
      <point x="503" y="286"/>
      <point x="503" y="432" type="curve" smooth="yes"/>
      <point x="503" y="580"/>
      <point x="439" y="700"/>
      <point x="236" y="700" type="curve" smooth="yes"/>
      <point x="92" y="700" type="line"/>
    </contour>
  </outline>
</glyph>
<glyph name="S" format="1">
  <advance width="565"/>
  <unicode hex="0053"/>
  <outline>
    <contour>
      <point x="509" y="194" type="curve" smooth="yes"/>
      <point x="508" y="309"/>
      <point x="476" y="355"/>
      <point x="340" y="369" type="curve" smooth="yes"/>
      <point x="249" y="379" type="line" smooth="yes"/>
      <point x="159" y="388"/>
      <point x="107" y="416"/>
      <point x="107" y="522" type="curve" smooth="yes"/>
      <point x="107" y="626"/>
      <point x="168" y="675"/>
      <point x="293" y="675" type="curve" smooth="yes"/>
      <point x="303" y="675" type="line" smooth="yes"/>
      <point x="371" y="675"/>
      <point x="421" y="658"/>
      <point x="490" y="609" type="curve"/>
      <point x="503" y="646" type="line"/>
      <point x="441" y="692"/>
      <point x="389" y="711"/>
      <point x="303" y="711" type="curve" smooth="yes"/>
      <point x="294" y="711" type="line" smooth="yes"/>
      <point x="140" y="711"/>
      <point x="67" y="647"/>
      <point x="67" y="521" type="curve" smooth="yes"/>
      <point x="67" y="397"/>
      <point x="127" y="353"/>
      <point x="224" y="344" type="curve" smooth="yes"/>
      <point x="327" y="334" type="line" smooth="yes"/>
      <point x="416" y="325"/>
      <point x="468" y="293"/>
      <point x="468" y="192" type="curve" smooth="yes"/>
      <point x="468" y="84"/>
      <point x="414" y="27"/>
      <point x="287" y="27" type="curve" smooth="yes"/>
      <point x="264" y="27" type="line" smooth="yes"/>
      <point x="197" y="27"/>
      <point x="129" y="58"/>
      <point x="71" y="114" type="curve"/>
      <point x="56" y="79" type="line"/>
      <point x="112" y="20"/>
      <point x="191" y="-9"/>
      <point x="267" y="-9" type="curve" smooth="yes"/>
      <point x="289" y="-9" type="line" smooth="yes"/>
      <point x="443" y="-9"/>
      <point x="509" y="58"/>
    </contour>
  </outline>
</glyph>
<glyph name="U" format="1">
  <advance width="607"/>
  <unicode hex="0055"/>
  <outline>
    <contour>
      <point x="304" y="-10" type="curve" smooth="yes"/>
      <point x="446" y="-10"/>
      <point x="535" y="94"/>
      <point x="535" y="318" type="curve" smooth="yes"/>
      <point x="535" y="700" type="line"/>
      <point x="495" y="700" type="line"/>
      <point x="495" y="318" type="line" smooth="yes"/>
      <point x="495" y="111"/>
      <point x="421" y="26"/>
      <point x="304" y="26" type="curve" smooth="yes"/>
      <point x="186" y="26"/>
      <point x="112" y="111"/>
      <point x="112" y="318" type="curve" smooth="yes"/>
      <point x="112" y="700" type="line"/>
      <point x="72" y="700" type="line"/>
      <point x="72" y="318" type="line" smooth="yes"/>
      <point x="72" y="94"/>
      <point x="159" y="-10"/>
    </contour>
  </outline>
</glyph>
<glyph name="V" format="1">
  <advance width="554"/>
  <unicode hex="0056"/>
  <outline>
    <contour>
      <point x="530" y="700" type="line"/>
      <point x="484" y="700" type="line"/>
      <point x="281" y="0" type="line"/>
      <point x="322" y="0" type="line"/>
    </contour>
    <contour>
      <point x="70" y="700" type="line"/>
      <point x="24" y="700" type="line"/>
      <point x="234" y="0" type="line"/>
      <point x="275" y="0" type="line"/>
    </contour>
    <contour>
      <point x="312" y="37" type="line"/>
      <point x="244" y="37" type="line"/>
      <point x="244" y="0" type="line"/>
      <point x="312" y="0" type="line"/>
    </contour>
  </outline>
</glyph>
<glyph name="W" format="1">
  <advance width="690"/>
  <unicode hex="0057"/>
  <outline>
    <contour>
      <point x="666" y="700" type="line"/>
      <point x="623" y="700" type="line"/>
      <point x="494" y="62" type="line"/>
      <point x="502" y="62" type="line"/>
      <point x="366" y="700" type="line"/>
      <point x="330" y="700" type="line"/>
      <point x="197" y="54" type="line"/>
      <point x="207" y="54" type="line"/>
      <point x="71" y="700" type="line"/>
      <point x="24" y="700" type="line"/>
      <point x="176" y="0" type="line"/>
      <point x="217" y="0" type="line"/>
      <point x="346" y="653" type="line"/>
      <point x="335" y="652" type="line"/>
      <point x="474" y="0" type="line"/>
      <point x="516" y="0" type="line"/>
    </contour>
  </outline>
</glyph>
<glyph name="X" format="1">
  <advance width="524"/>
  <unicode hex="0058"/>
  <outline>
    <contour>
      <point x="456" y="0" type="line"/>
      <point x="500" y="0" type="line"/>
      <point x="273" y="368" type="line"/>
      <point x="78" y="700" type="line"/>
      <point x="34" y="700" type="line"/>
      <point x="251" y="348" type="line"/>
    </contour>
    <contour>
      <point x="24" y="0" type="line"/>
      <point x="66" y="0" type="line"/>
      <point x="263" y="350" type="line"/>
      <point x="276" y="350" type="line"/>
      <point x="490" y="700" type="line"/>
      <point x="448" y="700" type="line"/>
      <point x="261" y="365" type="line"/>
      <point x="246" y="364" type="line"/>
    </contour>
  </outline>
</glyph>
<glyph name="Y" format="1">
  <advance width="534"/>
  <unicode hex="0059"/>
  <outline>
    <contour>
      <point x="510" y="700" type="line"/>
      <point x="464" y="700" type="line"/>
      <point x="260" y="202" type="line"/>
      <point x="285" y="179" type="line"/>
    </contour>
    <contour>
      <point x="70" y="700" type="line"/>
      <point x="24" y="700" type="line"/>
      <point x="248" y="179" type="line"/>
      <point x="281" y="202" type="line"/>
    </contour>
    <contour>
      <point x="287" y="215" type="line"/>
      <point x="247" y="215" type="line"/>
      <point x="247" y="0" type="line"/>
      <point x="287" y="0" type="line"/>
    </contour>
  </outline>
</glyph>
<glyph name="Z" format="1">
  <advance width="592"/>
  <unicode hex="005A"/>
  <outline>
    <contour>
      <point x="72" y="36" type="line"/>
      <point x="111" y="18" type="line"/>
      <point x="520" y="664" type="line"/>
      <point x="481" y="682" type="line"/>
    </contour>
    <contour>
      <point x="72" y="664" type="line"/>
      <point x="520" y="664" type="line"/>
      <point x="520" y="700" type="line"/>
      <point x="72" y="700" type="line"/>
    </contour>
    <contour>
      <point x="72" y="0" type="line"/>
      <point x="520" y="0" type="line"/>
      <point x="520" y="36" type="line"/>
      <point x="72" y="36" type="line"/>
    </contour>
  </outline>
</glyph>
<glyph name="M" format="1">
  <advance width="1196"/>
  <unicode hex="00FF"/>
  <outline>
    <contour>
      <point x="114" y="0" type="line"/>
      <point x="154" y="0" type="line"/>
      <point x="154" y="700" type="line"/>
      <point x="114" y="700" type="line"/>
    </contour>
    <contour>
      <point x="1082" y="0" type="line"/>
      <point x="1082" y="700" type="line"/>
      <point x="1042" y="700" type="line"/>
      <point x="1042" y="0" type="line"/>
    </contour>
    <contour>
      <point x="1063" y="662" type="line"/>
      <point x="1042" y="700" type="line"/>
      <point x="575" y="269" type="line"/>
      <point x="621" y="269" type="line"/>
      <point x="154" y="700" type="line"/>
      <point x="133" y="662" type="line"/>
      <point x="579" y="246" type="line"/>
      <point x="616" y="246" type="line"/>
    </contour>
  </outline>
</glyph>
